<?xml version="1.0" standalone="no"?>
<!DOCTYPE svg PUBLIC "-//W3C//DTD SVG 20010904//EN"
 "http://www.w3.org/TR/2001/REC-SVG-20010904/DTD/svg10.dtd">
<svg version="1.0" xmlns="http://www.w3.org/2000/svg"
 width="646.000000pt" height="272.000000pt" viewBox="0 0 646.000000 272.000000"
 preserveAspectRatio="xMidYMid meet">

<g transform="translate(0.000000,272.000000) scale(0.100000,-0.100000)"
fill="#000000" stroke="none">
<path d="M1196 2170 c-248 -63 -433 -238 -508 -480 -19 -63 -23 -95 -22 -200
1 -106 5 -137 27 -205 36 -110 89 -196 172 -279 84 -84 154 -128 271 -168 328
-113 691 41 844 357 82 170 96 421 25 449 -29 11 -45 7 -69 -18 -22 -21 -23
-29 -19 -88 21 -260 -143 -495 -407 -584 -77 -25 -235 -26 -310 0 -211 72
-352 226 -395 431 -27 130 -15 226 47 354 77 161 223 272 407 308 141 28 286
-4 418 -93 76 -51 103 -55 132 -17 28 34 20 58 -32 105 -135 121 -388 177
-581 128z"/>
<path d="M1994 1968 c-21 -18 -182 -165 -358 -325 -176 -161 -323 -293 -327
-293 -4 0 -55 53 -114 118 -59 64 -120 129 -136 145 -34 32 -78 36 -102 9 -29
-32 -21 -68 26 -120 176 -195 283 -308 299 -314 10 -4 28 -4 41 1 34 13 781
699 792 728 14 36 -12 77 -52 81 -23 2 -40 -5 -69 -30z"/>
<path d="M2410 1490 l0 -380 25 0 25 0 0 380 0 380 -25 0 -25 0 0 -380z"/>
<path d="M2770 1658 c-63 -32 -90 -83 -90 -168 0 -83 26 -142 72 -166 35 -19
115 -24 181 -10 l38 7 -3 92 -3 92 -68 3 -68 3 3 -28 c2 -22 9 -29 33 -33 27
-5 30 -9 30 -40 0 -33 -2 -35 -36 -38 -27 -2 -44 3 -65 22 -27 22 -29 29 -29
96 0 66 2 74 28 96 32 27 63 30 112 10 30 -13 35 -13 49 3 29 32 19 49 -36 66
-70 20 -96 19 -148 -7z"/>
<path d="M4716 1670 c-68 -22 -100 -83 -99 -192 0 -110 55 -172 153 -172 99 0
152 64 152 184 0 78 -21 131 -63 162 -29 21 -103 31 -143 18z m100 -81 c15
-17 19 -36 19 -99 0 -88 -17 -120 -65 -120 -48 0 -65 32 -65 120 0 63 4 82 19
99 24 27 68 27 92 0z"/>
<path d="M3040 1506 c0 -203 -4 -196 124 -196 98 0 116 7 116 47 0 22 -3 23
-81 23 l-80 0 3 38 3 37 58 3 c56 3 57 4 57 32 0 28 -1 29 -57 32 l-58 3 -3
38 -3 37 75 0 76 0 0 35 0 35 -115 0 -115 0 0 -164z"/>
<path d="M3310 1635 c0 -35 0 -35 45 -35 l45 0 0 -145 0 -145 40 0 40 0 0 145
0 145 29 0 c47 0 61 10 61 41 l0 29 -130 0 -130 0 0 -35z"/>
<path d="M3730 1490 l0 -180 40 0 40 0 0 180 0 180 -40 0 -40 0 0 -180z"/>
<path d="M3860 1635 c0 -35 0 -35 45 -35 l45 0 0 -145 0 -145 40 0 40 0 0 145
0 145 40 0 c42 0 66 24 54 54 -5 13 -27 16 -135 16 l-129 0 0 -35z"/>
<path d="M4280 1490 l0 -180 93 0 c108 0 151 17 179 70 24 46 25 167 1 217
-27 58 -63 73 -175 73 l-98 0 0 -180z m179 101 c25 -25 35 -78 27 -136 -9 -54
-44 -87 -90 -83 l-31 3 -3 104 c-1 58 0 111 2 118 8 20 73 16 95 -6z"/>
<path d="M4990 1490 l0 -180 35 0 35 0 0 128 1 127 56 -127 56 -128 48 0 49 0
0 181 0 180 -32 -3 -33 -3 -5 -127 -5 -127 -55 130 -54 129 -48 0 -48 0 0
-180z"/>
<path d="M5350 1506 c0 -136 3 -167 16 -180 12 -12 37 -16 108 -16 97 0 107 4
120 48 7 22 6 22 -79 22 l-86 0 3 38 3 37 60 5 c56 5 60 7 60 30 0 23 -4 25
-60 30 l-60 5 -3 38 -3 37 74 0 c67 0 75 2 80 21 12 45 2 49 -119 49 l-114 0
0 -164z"/>
</g>
</svg>
